<?xml version="1.0" encoding="UTF-8"?>
<svg id="Capa_1" xmlns="http://www.w3.org/2000/svg" version="1.1" viewBox="0 0 612 792">
  <!-- Generator: Adobe Illustrator 29.6.0, SVG Export Plug-In . SVG Version: 2.1.1 Build 91)  -->
  <defs>
    <style>
      .st0 {
        fill: none;
      }

      .st1 {
        fill: #e62442;
      }

      .st2 {
        fill: #b0182e;
      }

      .st3 {
        fill: #fff;
      }
    </style>
  </defs>
  <path class="st3" d="M387.3,176.9h0c.2,0,.4,0,.7,0,2.1-.9,5.3-2.1,8.4-3.3-3.2,1.2-6.3,2.4-8.4,3.3-.2,0-.4,0-.7,0Z"/>
  <polygon class="st0" points="375.1 325 375.1 325 375.1 325 375.1 325"/>
  <path class="st3" d="M402.6,171.4s0,0,0,0c-.3-.2-.5-.3-.8-.4.3.1.6.3.8.4Z"/>
  <polygon class="st2" points="375.1 325 375.1 325 375.1 325 375.1 325"/>
  <polygon class="st1" points="375.1 325 49.6 325 83.1 382.9 375.1 325 375.1 325"/>
  <polygon class="st2" points="83.1 407 140.7 487.1 204.1 405.7 83.1 407"/>
  <polygon class="st2" points="375.1 325 375.1 325 375.1 325 375.1 325"/>
  <polygon class="st2" points="83.1 382.9 256.9 382.9 375.1 325 375.1 325 83.1 382.9"/>
  <polygon class="st1" points="192.1 441.3 153.5 494.5 266.1 657.9 257.1 629.6 192.1 441.3"/>
  <polygon class="st1" points="196.8 438.7 257.1 627.1 266.1 657.9 262.5 539.1 196.8 438.7"/>
  <polygon class="st1" points="267.6 541.7 471.7 325 404.6 325 267.6 541.7 267.6 541.7 267.6 541.7 267.6 541.7"/>
  <polygon class="st1" points="479.8 327.6 267.6 541.7 267.6 541.7 272.8 660.2 479.8 327.6"/>
  <polygon class="st2" points="267.6 541.7 267.6 541.7 267.6 541.7 267.6 541.7"/>
  <rect class="st2" x="375.1" y="325" width="0" transform="translate(-48.3 66.1) rotate(-9.5)"/>
  <polygon class="st2" points="259.9 389.5 227.5 435.2 268.2 404.9 375.1 325 375.1 325 259.9 389.5"/>
  <polygon class="st2" points="375.1 325 375.1 325 375.1 325 375.1 325"/>
  <rect class="st2" x="375.1" y="325" width="0" height="0" transform="translate(-121.2 327.4) rotate(-41.2)"/>
  <polygon class="st2" points="375.1 325 375.1 325 375.1 325 375.1 325 375.1 325"/>
  <polygon class="st1" points="227.5 435.2 227.5 435.2 256 498.4 375.1 325 268.2 404.9 227.5 435.2 227.5 435.2"/>
  <polygon class="st2" points="227.5 435.2 268.2 404.9 227.5 435.2 227.5 435.2"/>
  <polygon class="st1" points="382.7 660.2 589.7 327.6 341.4 597.7 382.7 660.2"/>
  <polygon class="st1" points="377.3 539 341.4 597.7 579.5 325 514.5 325 377.5 539.2 377.3 539"/>
  <path class="st3" d="M117.8,182.5h52.2s0,0,0,0c0,0,0,0,0,0,.9-.6,5.3-3.1,9.1-5.2,2.8-1.6,5.3-3,5.8-3.3,0,0,0,0-.1,0,6.8-4.6,10.2-10.8,10.2-18.3v-24.9h-90.9v81.1h13.6v-29.3ZM117.8,143.2h63.5v13.4c0,9.2-5.2,13.8-15.6,13.8h-47.8v-27.2Z"/>
  <path class="st3" d="M187.8,175.7c-6,2.2-15.6,5.8-17.5,6.8,0,0,0,0,0,0,7.4,0,11.7,4.1,11.7,10.9v18.4h13.9v-20.2c0-6.7-2.7-12-8.1-15.9,0,0,0,0,0,0,0,0,0,0,0,0Z"/>
  <path class="st3" d="M217.9,204.7c5.2,4.7,13.6,7.1,25,7.1h58.6v-81.1h-13.4v68.6h-47.5c-10.8,0-16.9-5.9-16.9-16.1v-52.5h-13.9v54.9c0,8,2.8,14.4,8.1,19.1Z"/>
  <path class="st3" d="M405.5,204.8c4.3-4.5,6.6-10.1,6.8-16.7v-.3c0-6.3-3-12.5-9.8-16.4t0,0s0,0,0,0c0,0,0,0,0,0,0,0,0,0,0,0-1.9.7-4,1.5-6.2,2.3-3.2,1.2-6.3,2.4-8.4,3.3,6.9,1,10.4,4.8,10.4,11.4s-4.6,10.9-14,10.9h-48.9v-22.6h48.4c1.2,0,2.4,0,3.4.2h0c4.1-2.4,13.3-7.5,13.3-7.5h0,0s0,0,0,0c5.8-4.2,8.8-9.8,8.8-16.8s-.1-16.6-.5-21.9h-87v81.1h63.8c8.8,0,15.4-2.3,19.8-7ZM335.5,143.2h60v10.7c0,7.5-2.9,11-12.6,11h-47.4v-21.7Z"/>
  <polygon class="st3" points="461.7 211.8 476.3 211.8 476.3 182.9 522.2 130.7 504.2 130.7 468.8 172.1 434.2 130.7 416.7 130.7 461.7 183.1 461.7 211.8"/>
  <polygon class="st3" points="66.1 305.5 93.1 242.9 120 305.5 136 305.5 170.9 224.4 155.6 224.4 127.1 292.2 99.2 224.4 86.8 224.4 58.9 292.1 30.4 224.4 15 224.4 50 305.5 66.1 305.5"/>
  <path class="st3" d="M384.7,250.6v-2.8c-.7-14-9.4-23.3-27.5-23.9-1.4-.1-11.9-.1-31.5-.1h-36.4v55.5c.6,15.4,10.8,25.7,29.7,26.5,3.2.1,9.4.1,18.4.1s15.1,0,18.2-.1c9.5-.3,16.8-2.9,22-7.8,5.1-4.7,7.6-11,7.6-18.8v-19.9h-29.3c-10.4,0-9.6.1-18.7.3l-10.5,12.3c9,.2,18.8.3,29.2.3h15.3v4.5c0,10.2-6.1,16.2-16.9,16.2h-34.1c-10.8,0-16.9-6-16.9-16.2v-40.2h52.6c9.7,0,14.6,4.5,14.6,13.6v.3h14.1Z"/>
  <polygon class="st3" points="417.1 270.9 478.9 270.9 478.9 258.2 417.1 258.2 417.1 237.4 481.7 237.3 481.7 224.4 403.5 224.4 403.5 305.5 482.2 305.5 482.2 292.6 417.1 292.6 417.1 270.9"/>
  <path class="st3" d="M579.9,267.6h0c6.8-4.6,10.2-10.8,10.2-18.3v-24.9h-90.9v81.1h13.6v-29.3h52.1s0,0,0,0h0c1.6-1.1,15.1-8.6,15.1-8.6ZM560.6,264.2h-47.8v-27.2h63.5v13.4c0,9.2-5.2,13.8-15.6,13.8Z"/>
  <path class="st3" d="M582.7,269.4c-1.9.7-4.1,1.5-6.3,2.4-3.5,1.3-7.1,2.7-9.3,3.6-.9.4-1.6.7-2,.8,7.5,0,11.9,4.1,11.9,10.9v18.4h13.9v-20.2c0-6.7-2.7-12-8.2-16Z"/>
  <polygon class="st3" points="282.1 305.5 232.4 224.4 216.2 224.4 166.5 305.5 182.1 305.5 192.3 288.5 255.5 288.5 242.7 275.8 200.1 275.8 223.3 237.1 225.5 237.1 246.7 272.4 246.7 272.4 248.7 275.8 248.7 275.8 256.4 288.5 256.4 288.5 257.5 290.4 257.5 290.4 257.5 290.4 266.6 305.5 282.1 305.5"/>
</svg>