<?xml version="1.0" encoding="UTF-8"?>
<svg id="Capa_1" xmlns="http://www.w3.org/2000/svg" version="1.1" viewBox="0 0 119.5 20">
  <!-- Generator: Adobe Illustrator 29.6.0, SVG Export Plug-In . SVG Version: 2.1.1 Build 107)  -->
  <defs>
    <style>
      .st0 {
        font-size: 11.9px;
      }

      .st1 {
        font-size: 16.3px;
      }

      .st2, .st3, .st4 {
        fill: #fff;
      }

      .st3 {
        font-family: BlackSignaturePERSONALUSEONLY-Regular, 'Black Signature PERSONAL USE ONLY';
      }

      .st4 {
        font-family: MaradonaSignature, 'Maradona Signature';
      }
    </style>
  </defs>
  <text class="st4" transform="translate(-15.9 -104)"><tspan class="st0" x="0" y="0">Y</tspan><tspan class="st1" x="14.1" y="0">ou play, we pay!</tspan></text>
  <text class="st3" transform="translate(6.3 -70.9)"><tspan class="st0" x="0" y="0">y</tspan><tspan class="st1" x="6.5" y="0">ou play, we pay!</tspan></text>
  <path class="st2" d="M2.1,8.1c.6-.4,1.2-.5,2-.5.7,0,1.4,0,2,.2.5,0,.7.1.9,0,0,0,.1-.1.3-.3.2-.2.3-.4.6-.6.3-.3.5-.6.8-.9.3-.3.5-.5.6-.6.1,0,.3-.1.4,0,.1,0,.2.1.3.3,0,.1,0,.2,0,.4l-.4.4c-.6.6-1,1.1-1.5,1.7.1,0,.2,0,.3,0,.2,0,.4,0,.5,0s.2,0,.3-.1c.1,0,.3-.2.5-.4.4-.3,1.2-1,2.6-1.9.2-.1.4-.3.7-.4.2,0,.5-.1.7,0,.2,0,.3.2.4.4,0,.4,0,.8-.2,1.3-.2.5-.3,1-.5,1.4,0,.1,0,.2-.1.3.4.2.6.3.5.5,0,.2-.4.3-.9.3-1.6,3.1-3.1,5.2-4.5,6.1-1.4.9-2.6,1.2-3.6.7-1-.5-1.8-1.4-2.4-2.6s-.9-2.4-.9-3.6c0-1,.3-1.7.9-2.1ZM2.5,12.6c.5,1.4,1.3,2.4,2.3,3,.7.3,1.4.3,2.2,0,.7-.4,1.4-1,2.1-1.8.6-.8,1.2-1.6,1.7-2.4.5-.8.8-1.4,1-1.9-.1,0-.3,0-.7-.1-.3,0-.7-.1-1-.2-.3,0-.5,0-.7-.1-.1,0-.3,0-.4,0h0c-1,.9-2.1,1.8-3.3,2.6-.4.3-.7.3-1,.2-.2-.1-.3-.4-.1-.8.2-.3.4-.7.7-1.1.3-.4.6-.8.9-1.1,0-.1.2-.2.2-.3,0,0-.2,0-.5-.1s-.8-.1-1.2-.1c-.5,0-.9,0-1.3.1-.4,0-.7.3-.9.6-.4.9-.3,2.1.2,3.5ZM6.2,10.3c0,0,.2-.1.4-.3,0,0,.2-.1.3-.2.2-.1.4-.3.6-.5.2-.1.4-.3.6-.5,0,0-.2,0-.2,0,0,0-.1,0-.2,0,0,0-.1,0-.2,0-.3.3-.5.6-.8,1-.2.3-.3.4-.4.5,0,0,0,0,0,0ZM11.5,8.6h.6c.3-.5.5-1.1.7-1.7,0,0,0-.2,0-.2,0-.2.1-.4,0-.4,0,0-.2,0-.5.3h-.1c-.3.3-.6.5-.9.7-.3.2-.6.5-.9.7s-.4.3-.5.4c.5,0,.9.2,1.4.2Z"/>
  <path class="st2" d="M14,12.8c-.5.4-1,.4-1.3.2-.3-.2-.5-.5-.5-.8,0-.6.3-1.3.8-1.9.5-.7.9-1.2,1.4-1.6.1-.1.3-.2.4-.2,0,0,.2,0,.3,0,0,0,.2,0,.3,0,.2,0,.4,0,.5,0,.1,0,.2.3.3.5,0,.4.3.7.7.9.4.2.8.3,1.2.3s.7,0,1-.2c.1,0,.3,0,.4,0,0,0,.1.2.2.4,0,.1,0,.2-.1.3-.6.4-1.3.5-2,.4-.7,0-1.3-.3-1.8-.6-.6,1.2-1.2,2-1.7,2.4ZM13.7,11.7c.1-.2.3-.4.4-.6.2-.2.3-.4.4-.6s.1-.3.1-.4c0,0-.2.2-.3.3-.1.2-.3.4-.4.6-.1.2-.2.4-.3.6s0,.3,0,.3c0,0,0,0,.2-.2Z"/>
  <path class="st2" d="M24.2,7.5c.2.1.4.3.6.5.1.2.2.4,0,.6,0,0-.1.2-.2.3-.4.4-.7.9-1,1.6-.3.6-.5,1.2-.4,1.6,0,.2,0,.4-.3.5-.2,0-.5,0-.7,0-.2,0-.4-.3-.4-.6,0-.5.2-.9.4-1.2.2-.4.3-.6.5-.9,0,0,0-.1,0-.1-.1.2-.4.5-.7.8-.3.4-.8.8-1.2,1.3-.5.5-.9.8-1.2,1.1-.3.2-.5.2-.8.2-.3,0-.5-.2-.7-.5-.2-.2-.2-.5,0-.8.2-.5.6-1.1,1-1.8.4-.7.8-1.1,1-1.3.2-.2.4-.2.6,0,.2.1.3.3.4.5,0,.2,0,.4-.2.5-.2.1-.7.7-1.4,1.8-.2.4-.2.5,0,.3.2-.1.5-.4.9-.8.4-.4.9-.8,1.3-1.3.5-.5.9-.9,1.3-1.3.2-.2.4-.4.6-.6.2-.2.4-.2.7,0Z"/>
  <path class="st2" d="M33.1,7.3c0,.1,0,.3,0,.5,0,.1-.1.3-.2.4,0,0-.2.3-.4.6s-.4.7-.6,1.2c-.2.4-.4.8-.5,1.1-.1.3-.2.5-.2.5.3-.5.7-1.1,1.3-1.7.6-.6,1.1-1.1,1.5-1.5.4-.3.7-.3,1-.2s.4.4.4.8c0,.1,0,.2,0,.4v.2c.6-.3,1.3-.5,2-.6.7,0,1.3,0,1.7,0,.1,0,.2.1.2.3,0,.1,0,.3,0,.4,0,.1-.2.2-.3.1-1,0-1.9,0-2.6.3-.7.3-1.2.6-1.6,1-.3.3-.6.6-1,1.1-.3.3-.5.6-.7.8-.2.3-.5.5-.7.6-.2,0-.3.1-.5,0-.1,0-.2-.2-.3-.3,0,0,0,0,0-.1,0,0,0-.1,0-.1,0,0,0,0-.1.2-.7.9-1.3,1.8-1.8,2.8-.5,1-.9,2-1.3,2.9,0,0,0,0,0,.2-.1.3-.3.5-.5.5-.2,0-.3,0-.5-.1-.1-.1-.2-.2-.2-.4,0-.1,0-.3.1-.4,1.4-3.6,2.9-7.2,4.6-10.7h0c0-.3.2-.6.4-.8.2-.2.4-.3.7-.2.2,0,.3.2.3.3ZM32.4,11.8c.1-.1.3-.3.4-.5.1-.2.3-.4.4-.5,0-.1.1-.2.1-.3,0,0-.1,0-.3.2-.1.2-.3.4-.5.6-.2.2-.3.4-.5.6,0,0,.1,0,.3-.2Z"/>
  <path class="st2" d="M43.6.7c.2,0,.3.1.4.3,0,.1,0,.3,0,.5-.7,1-1.6,2.4-2.7,4.2-1,1.9-2,3.7-2.8,5.6-.8,1.9-1.3,3.3-1.4,4.3,0,.1-.1.2-.4.3-.2,0-.4,0-.6,0-.2,0-.3-.2-.3-.3.4-1.6,1.1-3.5,2-5.5,1-2.1,1.9-4,2.9-5.7,1-1.7,1.8-2.9,2.3-3.4.2-.1.3-.2.5-.2Z"/>
  <path class="st2" d="M43.3,12.5c0-.4,0-.8.2-1.3.2-.5.4-.9.6-1.2,0,0-.2.2-.3.3-.3.3-.7.7-1.2,1.2-.5.5-1,.9-1.5,1.3-.5.3-.8.5-1.1.5-.2,0-.4-.1-.5-.3-.2-.2-.2-.6,0-1.1.2-.5.7-1,1.3-1.7.6-.7,1.3-1.2,1.9-1.7.7-.4,1.2-.6,1.6-.4,0,0,.1,0,.2,0h.2c0-.2.2-.3.3-.3.1,0,.3,0,.4.1.1,0,.3.2.4.4,0,.1.1.3,0,.4,0,.1-.1.3-.3.5-.2.4-.4.8-.7,1.2-.2.5-.4.8-.5,1.2,0,.3,0,.5.3.6.3,0,.8-.1,1.4-.5.6-.3,1.2-.7,1.9-1.2.6-.5,1.1-.9,1.5-1.3.2-.2.3-.2.5-.2.1,0,.2.1.3.3,0,.2,0,.4-.3.6-.8.8-1.9,1.6-3.1,2.4s-2.2,1.1-3,1c-.5-.1-.7-.4-.7-.8Z"/>
  <path class="st2" d="M53.8,10.5c.3-.5.5-.9.6-1.2.1-.5.1-.7,0-.6-.5.1-1,.5-1.7,1.1-.7.6-1.3,1.2-1.9,1.9l-.9.9c-.2.2-.5.3-.8.2-.3,0-.5-.2-.7-.4-.1-.2-.2-.5,0-.8.2-.4.4-.9.8-1.6s.9-1.3,1.4-1.9c.1-.1.3-.2.5-.1.2,0,.3.2.4.3,0,.1,0,.3,0,.4-.2.2-.4.5-.6.8-.2.3-.5.6-.7.9-.3.5-.4.7-.4.7,0,0,.2-.2.6-.5h0c.4-.5.9-1,1.5-1.5.6-.5,1.2-.9,1.7-1.3.6-.4,1.2-.4,1.6-.1.4.2.6.7.5,1.3,0,.4-.3,1-.7,1.8.4-.3,1-.7,1.9-1,.8-.4,1.5-.6,2.1-.6.2,0,.3,0,.3.2,0,.1,0,.3,0,.4,0,.2-.2.3-.3.3-.5,0-1.1.3-1.9.8-.8.4-1.6.9-2.3,1.4-.7.5-1.2.9-1.4,1.2-.3.5-.8,1.3-1.5,2.3-.7,1-1.3,1.9-1.9,2.6-.3.3-.6.4-.9.4-.4,0-.6-.2-.8-.4-.2-.3-.1-.6,0-1,1.2-1.6,2.2-2.9,3.1-3.7.5-.5,1.1-1.2,1.7-1.9.3-.3.5-.7.8-1.2Z"/>
  <path class="st2" d="M58.6,13.5c.3-.4.6-.8.9-1.2.3-.4.6-.6.8-.7.2,0,.4,0,.6.2.1.2,0,.4-.1.7,0,.1-.2.4-.5.7-.2.3-.5.6-.7,1-.2.3-.4.5-.4.6-.2.2-.4.2-.6.2-.2,0-.3,0-.4-.3,0-.1,0-.4.1-.6l.3-.5Z"/>
  <path class="st2" d="M70,8c.2,0,.3.1.5.2.1.1.1.2,0,.4,0,0-.2.3-.3.6-.2.3-.3.6-.5.9l-.5.9c-.1.3-.2.4-.2.5l.4-.6c.2-.3.5-.6.7-.9.2-.3.4-.5.5-.6.1,0,.3-.1.4-.1.2,0,.3,0,.4.2.1,0,.2.2.2.3v.3c0,.2-.1.6-.2.9,0,.4,0,.7,0,.9,0,.3,0,.4.2.4.2,0,.4-.3.6-.6.2-.3.3-.7.5-1,.1-.3.2-.6.2-.7s0-.2,0-.3c0-.2-.1-.4-.2-.7,0-.4,0-.6.1-.8.2-.2.3-.3.6-.2.2,0,.4.3.5.7,0,.3.1.7.1,1.3,0,.2,0,.4.3.5.2.2.5.3.8.3.3,0,.7,0,1.1-.3.1,0,.3,0,.4,0,0,0,.2.2.2.3,0,.1,0,.3-.2.4-.4.3-.9.5-1.4.5-.5,0-1-.2-1.4-.5,0,.2-.1.4-.3.7-.2.4-.4.7-.7,1-.3.3-.5.5-.8.6-.4,0-.8,0-1.1-.4-.3-.3-.4-.9-.3-1.8-.3.4-.6.8-.8,1.1s-.5.6-.7.8c-.2.2-.4.3-.6.2-.2,0-.4,0-.6-.3-.2-.1-.2-.4-.1-.6.2-.6.5-1.4.9-2.3.4-.9.8-1.6,1.1-2,0,0,.2-.1.4,0Z"/>
  <path class="st2" d="M74.8,12.3c0-.5.2-1,.6-1.4.7-1.1,1.6-2,2.6-2.7.9-.6,1.6-.8,2-.7.4.2.6.5.4,1-.3.5-.7.9-1.2,1.2-.5.3-1.1.6-1.6.8-.2,0-.5.2-.7.3-.1,0-.3.2-.4.3-.1.2-.3.3-.4.5-.1.2-.2.3-.2.4,0,.1,0,.2.2.2.8-.1,2-.5,3.6-1.3,1.6-.7,2.8-1.4,3.8-2.1.2-.1.4-.1.6,0,.2,0,.2.2.2.4,0,.2-.2.4-.5.6-.6.4-1.4.9-2.5,1.4-1.1.6-2.2,1.1-3.3,1.5-1.1.4-2,.6-2.6.5-.5-.2-.7-.5-.7-1Z"/>
  <path class="st2" d="M89.7,7.3c0,.1,0,.3,0,.5,0,.1-.1.3-.2.4,0,0-.2.3-.4.6s-.4.7-.6,1.2c-.2.4-.4.8-.5,1.1-.1.3-.2.5-.2.5.3-.5.7-1.1,1.3-1.7.6-.6,1.1-1.1,1.5-1.5.4-.3.7-.3,1-.2s.4.4.4.8c0,.1,0,.2,0,.4v.2c.6-.3,1.3-.5,2-.6.7,0,1.3,0,1.7,0,.1,0,.2.1.2.3,0,.1,0,.3,0,.4,0,.1-.2.2-.3.1-1,0-1.9,0-2.6.3-.7.3-1.2.6-1.6,1-.3.3-.6.6-1,1.1-.3.3-.5.6-.7.8-.2.3-.5.5-.7.6-.2,0-.3.1-.5,0-.1,0-.2-.2-.3-.3,0,0,0,0,0-.1,0,0,0-.1,0-.1,0,0,0,0-.1.2-.7.9-1.3,1.8-1.8,2.8-.5,1-.9,2-1.3,2.9,0,0,0,0,0,.2-.1.3-.3.5-.5.5-.2,0-.3,0-.5-.1-.1-.1-.2-.2-.2-.4,0-.1,0-.3.1-.4,1.4-3.6,2.9-7.2,4.6-10.7h0c0-.3.2-.6.4-.8.2-.2.4-.3.7-.2.2,0,.3.2.3.3ZM89.1,11.8c.1-.1.3-.3.4-.5.1-.2.3-.4.4-.5,0-.1.1-.2.1-.3,0,0-.1,0-.3.2-.1.2-.3.4-.5.6-.2.2-.3.4-.5.6,0,0,.1,0,.3-.2Z"/>
  <path class="st2" d="M96.5,12.5c0-.4,0-.8.2-1.3.2-.5.4-.9.6-1.2,0,0-.2.2-.3.3-.3.3-.7.7-1.2,1.2-.5.5-1,.9-1.5,1.3-.5.3-.8.5-1.1.5-.2,0-.4-.1-.5-.3-.2-.2-.2-.6,0-1.1.2-.5.7-1,1.3-1.7.6-.7,1.3-1.2,1.9-1.7.7-.4,1.2-.6,1.6-.4,0,0,.1,0,.2,0h.2c0-.2.2-.3.3-.3.1,0,.3,0,.4.1.1,0,.3.2.4.4,0,.1.1.3,0,.4,0,.1-.1.3-.3.5-.2.4-.4.8-.7,1.2-.2.5-.4.8-.5,1.2,0,.3,0,.5.3.6.3,0,.8-.1,1.4-.5.6-.3,1.2-.7,1.9-1.2.6-.5,1.1-.9,1.5-1.3.2-.2.3-.2.5-.2.1,0,.2.1.3.3,0,.2,0,.4-.3.6-.8.8-1.9,1.6-3.1,2.4-1.2.7-2.2,1.1-3,1-.5-.1-.7-.4-.7-.8Z"/>
  <path class="st2" d="M107.1,10.5c.3-.5.5-.9.6-1.2.1-.5.1-.7,0-.6-.5.1-1,.5-1.7,1.1-.7.6-1.3,1.2-1.9,1.9l-.9.9c-.2.2-.5.3-.8.2-.3,0-.5-.2-.7-.4-.1-.2-.2-.5,0-.8.2-.4.4-.9.8-1.6s.9-1.3,1.4-1.9c.1-.1.3-.2.5-.1.2,0,.3.2.4.3,0,.1,0,.3,0,.4-.2.2-.4.5-.6.8-.2.3-.5.6-.7.9-.3.5-.4.7-.4.7,0,0,.2-.2.6-.5h0c.4-.5.9-1,1.5-1.5.6-.5,1.2-.9,1.7-1.3.6-.4,1.2-.4,1.6-.1.4.2.6.7.5,1.3,0,.4-.3,1-.7,1.8.4-.3,1-.7,1.9-1,.8-.4,1.5-.6,2.1-.6.2,0,.3,0,.3.2,0,.1,0,.3,0,.4,0,.2-.2.3-.3.3-.5,0-1.1.3-1.9.8-.8.4-1.6.9-2.3,1.4-.7.5-1.2.9-1.4,1.2-.3.5-.8,1.3-1.5,2.3-.7,1-1.3,1.9-1.9,2.6-.3.3-.6.4-.9.4-.4,0-.6-.2-.8-.4-.2-.3-.1-.6,0-1,1.2-1.6,2.2-2.9,3.1-3.7.5-.5,1.1-1.2,1.7-1.9.3-.3.5-.7.8-1.2Z"/>
  <path class="st2" d="M112.9,12.3c.2-.2.4-.2.6-.2.2,0,.4.1.5.3,0,.6-.1,1.1-.4,1.3-.3.2-.5.3-.8.2-.3,0-.4-.3-.5-.6,0-.3.1-.6.5-1ZM115.5,7.4c.6-1.2,1.2-2,1.6-2.6.1-.1.3-.2.4-.2.2,0,.3,0,.4.1,0,.1,0,.3,0,.5,0,.2-.2.3-.3.5-.7.9-1.3,1.8-1.9,2.9-.8,1.4-1.5,2.8-1.8,2.3.5-1.1,1.1-2.3,1.7-3.4Z"/>
  <text class="st3" transform="translate(179.7 -52.2)"><tspan class="st0" x="0" y="0">Y</tspan><tspan class="st1" x="11.1" y="0">ou play, we pay!</tspan></text>
</svg>