<?xml version="1.0" encoding="UTF-8"?>
<svg id="Capa_1" xmlns="http://www.w3.org/2000/svg" version="1.1" viewBox="0 0 792 612">
  <!-- Generator: Adobe Illustrator 29.5.1, SVG Export Plug-In . SVG Version: 2.1.0 Build 141)  -->
  <defs>
    <style>
      .st0 {
        fill: #e62442;
      }
    </style>
  </defs>
  <path class="st0" d="M594.93,56.23c.61-6.45-2.2-7.46-7.73-7.37-24.57.39-49.16,0-73.71.89-9.39.34-12.7-2.43-11.18-11.51,1.22-7.27-1.13-10.31-9.4-10.24-64.72.55-129.44.75-194.16.63-8.11-.01-11.49,2.24-10.4,10.39,1.06,7.96-2.26,10.72-10.5,10.54-24.56-.55-49.14-.23-73.71-.33-4.76-.02-8.71-.43-8.12,6.83,3.28,40.34,11,79.47,30.12,115.65,19.69,37.25,46.58,67.81,83.81,88.29,8,4.4,6.12,7,.58,11.21-4.4,3.34-8.44,7.16-12.68,10.72-6.41,5.38.61,8.31,2.35,12.01,2.02,4.3,5.03,5,9.01,1.58,6.55-5.64,13.63-10.68,20.08-16.42,4.59-4.09,7.18-4.43,10.95,1.39,9.81,15.12,20.55,29.62,35.94,39.75,2.92,1.92,2.82,4.5,2.79,7.23-.13,13.49.34,27.03-.62,40.47-1.6,22.37-12.67,39.13-32.49,49.84-8.54,4.61-17.42,8.83-26.99,10.46-7.11,1.21-7.73,4.92-7.45,10.83.34,7.12,5.16,6.13,9.51,6.14,24.57.05,49.15.03,73.72.03v.58c24.57,0,49.15-.33,73.71.18,8.14.17,9.93-2.82,9.77-10.24-.14-6.65-4.27-6.59-8.72-7.67-35.13-8.51-56.24-30.05-59.33-61.07-.96-9.61-.04-19.39-.76-29.04-.71-9.61,1.16-16.82,10.14-22.61,7.1-4.57,12.39-11.95,18.46-18.1,6.76-6.86,10.73-20.55,18.52-20.78,7.51-.22,15.54,10.19,22.95,16.39,5.32,4.44,8.7,5.76,13.72-1.16,4.19-5.78,3.61-8.52-1.52-12.44-5.47-4.18-14.66-9.12-14.58-13.59.11-6.23,10.28-8.36,15.97-12.45,67.41-48.43,94.39-117.64,101.95-197.01ZM279.33,214.89c-36.83-37.4-55.71-83.2-62.98-134.52-1.08-7.62,1.34-9.39,8.54-9.23,18.29.41,36.61.43,54.91-.09,7.48-.21,9.37,2.47,9.2,9.5-.91,38.16,2.66,75.86,12.8,112.79,4.45,16.2,10.65,31.8,17.55,50.11-16.98-7.87-29.08-17.46-40.02-28.57ZM472.51,243.51c21.37-54.35,29.73-107.67,29.68-162.43,0-7.39,1.49-10.36,9.68-10.1,19.01.6,38.05.17,57.08.02,4.4-.03,7.1.33,6.19,6.16-8.07,51.76-26.35,98.72-63.44,137.02-10.81,11.16-22.86,20.58-39.18,29.33Z"/>
  <path class="st0" d="M293.13,586.53c33.53-.71,67.08-.26,100.62-.26v-.05c29.05,0,58.1.02,87.14,0q27.59-.02,26.16-27.61c-.02-.34-.05-.69-.01-1.04.49-4.96-1.86-7.2-6.67-6.44-8.23,1.3-8.69-3.47-8.65-9.79.14-26.28-.26-52.56.02-78.84.08-7.34-2.45-9.15-9.58-9.12-58.44.24-116.88.25-175.32-.15-8.79-.06-11.97,1.72-11.67,11.31.82,26.26.47,52.55.45,78.84,0,3.4,1.62,8.73-4.66,8.08-9.76-1.02-10.75,4.38-10,11.91.34,3.42.49,6.97-.01,10.36-1.43,9.69,1.77,13.04,12.17,12.82Z"/>
</svg>