<?xml version="1.0" encoding="UTF-8"?>
<svg id="Capa_1" xmlns="http://www.w3.org/2000/svg" version="1.1" viewBox="0 0 792 612">
  <!-- Generator: Adobe Illustrator 29.5.1, SVG Export Plug-In . SVG Version: 2.1.0 Build 141)  -->
  <defs>
    <style>
      .st0 {
        fill: #e62442;
      }
    </style>
  </defs>
  <path class="st0" d="M374.06,30.34c-13.71,2.33-20.95,8.57-25.25,22.21-17.23,54.73-23.33,111.1-27.28,167.9-.25,4.09-.12,8.25-.82,12.26-2.16,12.4,1.39,15.45,14.59,13.18,51.89-8.93,104.04-9.98,155.8,1.2,11.84,2.56,13.35-1.93,12.43-11.44-1.17-12.24-1.92-24.51-3.1-36.75-4.81-50.02-11.51-99.65-26.62-147.89-3.73-11.92-9.96-17.52-21.91-19.92-26.01-5.22-51.75-5.19-77.86-.75Z"/>
  <path class="st0" d="M414.54,256.33c-81.3-.92-156.41,15.73-209.58,85.86,137.28-13.55,274.13-12.35,411.42-.28-50.61-68.86-123.57-84.7-201.84-85.58Z"/>
  <path class="st0" d="M483.64,43.1c9.95,32.78,18.78,65.29,22.94,98.83,4.23,34.08,7.72,68.23,9.13,102.55.25,6.17,2.9,8.82,8.64,10.64,39.28,12.48,73.58,32.9,101.53,66.2,25.39-118.13-48.8-254.58-142.24-278.23Z"/>
  <path class="st0" d="M299.75,254.54c7.84-2.66,7.77-8.27,8.24-14.47,2.07-27.6,3.73-55.25,6.52-82.79,3.99-39.28,13.62-77.43,26.5-117.1-96.39,29.7-178.6,191.87-143.35,280.43,27.2-33.1,62.73-52.7,102.09-66.07Z"/>
  <path class="st0" d="M617.81,359.14c-7.97-5.87-25.74-1.5-29.71,7.88-9.37,22.13-18.39,44.41-27.56,66.63-1.58,3.82-2.91,7.68-1.59,11.89,2.98,7.04-.91,12.98-3.3,19.03-13.89,35.25-30.15,69.43-46.81,103.43-2.71,5.54-8.01,11.28,2.46,15.77,9.15,3.92,10.9-1.45,14.55-7.61,24.7-41.69,36.88-89.36,65.5-129.64,15.54-21.88,20.98-50.81,27.55-77.71.8-3.26,2.94-6.7-1.08-9.66Z"/>
  <path class="st0" d="M272.1,473.76c-4.07-8.95-11.37-17.67-5.02-28.81-1.04-2.86-1.99-5.75-3.14-8.56-9.1-22.25-19.5-44.08-26.93-66.87-5.46-16.75-16.29-12.93-26.68-9.88-12.13,3.55-3.73,12.55-2.94,19.04.68,5.49,3.58,10.67,4.79,16.15,7.25,32.8,27.97,59.02,42.6,88.22,15.35,30.64,29.55,61.86,44.03,92.93,3.08,6.61,5.49,11.44,14.53,7.31,9.24-4.23,5.18-9.46,2.69-14.83-14.62-31.57-29.53-63.01-43.94-94.69Z"/>
</svg>