<?xml version="1.0" encoding="UTF-8"?>
<svg id="Capa_1" xmlns="http://www.w3.org/2000/svg" version="1.1" viewBox="0 0 792 612">
  <!-- Generator: Adobe Illustrator 29.5.1, SVG Export Plug-In . SVG Version: 2.1.0 Build 141)  -->
  <defs>
    <style>
      .st0 {
        fill: #e62442;
      }
    </style>
  </defs>
  <path class="st0" d="M503.84,218.65c-.62-56.46-48.72-101.79-108-101.79-56.77,0-103.46,47.23-103.22,104.41.25,59.38,47.35,105.6,107.11,105.12,57-.46,104.75-49.87,104.11-107.74Z"/>
  <path class="st0" d="M479.56,414.9c-.54-3.07-1.11-7.15-5.09-7.81-4.01-.66-3.77,3.51-4.88,5.8-2.02,4.18-5.91,4.36-9.6,5.11-11.22,2.28-22.48,4.42-33.66,6.87-9.64,2.11-19.34,5.42-27.73-5.27,9.81,57.06,22.59,112.46,36.98,170.65,9.26-12.51,16.77-22.22,23.77-32.29,4.18-6.02,8.17-6.52,14.25-2.51,9.88,6.52,20.27,12.26,31.59,19.01.95-2.74,1.64-3.68,1.51-4.47-8.97-51.71-17.97-103.41-27.13-155.09Z"/>
  <path class="st0" d="M373.2,426.63c-9.42-1.38-18.68-3.83-28.04-5.6-8.72-1.65-17.21-3.52-23.21-12.82-10.87,55.97-21.73,111.95-33.24,171.22,10.52-6.25,17.8-10.65,25.15-14.93q19.97-11.62,33.5,6.3c4.63,6.13,9.25,12.28,15.42,20.49,8.31-30.79,14.93-59.1,23.73-86.72,7-21.98,10.12-42.83,1.02-65.13-3.19-7.82-6.33-11.64-14.32-12.82Z"/>
  <path class="st0" d="M500.1,328.84c-19.96-23.99-19.85-23.69-45.37-7.07-6.1,3.97-7.69,6.92-3.76,13.32,10.44,17.02,20.36,34.36,30.58,51.52,1.41,2.37,2.67,5.17,7.61,5.54,7.64-5.14,16.16-11.17,24.97-16.74,10.73-6.78,14.62-13.78,3.86-24.36-6.73-6.62-11.8-14.9-17.89-22.21Z"/>
  <path class="st0" d="M312.85,50.61c-11.09,3.89-20.94,11.5-31.36,18.12-6.03,3.83-7.37,7.76-2.57,13.78,6.53,8.19,12.39,16.91,18.67,25.3,6.54,8.74,12.01,22.61,20.21,24.51,7.82,1.82,18.33-9.36,28.07-13.93,6.87-3.22,7.88-6.67,4.1-13.04-9.48-15.97-18.48-32.23-27.83-48.28-1.85-3.17-3.63-6.94-9.29-6.46Z"/>
  <path class="st0" d="M511.47,171.93c18.24-10.32,36.76-20.14,55.1-30.26,2.87-1.59,5.93-3.44,4.93-8.1-4.46-10.77-12-20-18.98-29.65-4.43-6.13-8.44-6.36-14.09-2.03-10.21,7.82-20.8,15.15-31,22.99q-24.19,18.59-6.85,43.03c.28.39.54.79.74,1.22,2.32,4.82,5.18,5.61,10.15,2.8Z"/>
  <path class="st0" d="M471.67,132.73c5.44,3.83,7.91,2.81,11.52-1.53,11.9-14.3,24.1-28.35,35.99-42.66,2.69-3.24,4.58-7.15,6.22-9.77.47-5.87-2.66-8.29-5.78-10.44-7.07-4.86-14.5-9.21-21.43-14.26-7.31-5.33-12.26-4.97-16.84,3.7-5.78,10.95-12.76,21.25-19.14,31.89-15.51,25.85-15.3,25.6,9.46,43.07Z"/>
  <path class="st0" d="M318.2,384.69c7.58-14.35,15.62-28.46,22.95-42.93,2.44-4.81,9.54-10.85,5.25-14.95-8.45-8.08-19.24-13.71-30.18-21.11-2.04,2.43-3.9,4.5-5.6,6.7-6.15,7.92-12.43,15.75-18.32,23.86-27.38,37.64-26.79,24.87,9.2,52.57,7.99,6.15,12.57,3.67,16.7-4.14Z"/>
  <path class="st0" d="M565.47,300.54c-11.77-6.31-23.56-12.59-35.36-18.85-24.32-12.93-24.11-12.76-40.47,9.64-4.21,5.77-4.95,9.4,1.25,13.96,16.53,12.15,32.77,24.71,49.16,37.05,2.62,1.98,5.63,4.73,8.76,1.31,9.76-10.67,16.22-23.48,22.87-36.02.09-4.49-3.36-5.56-6.21-7.09Z"/>
  <path class="st0" d="M428.75,28.62c-10.74-2.83-16.03-.03-17.05,11.38-1.66,18.52-3.94,36.98-6.07,56.53q-.41,8.25,8,10.25,27.86,6.62,35.9-21.75c1.43-5.04,3.08-10.03,4.31-15.12,10.09-41.8,12.78-31.32-25.07-41.3Z"/>
  <path class="st0" d="M306.65,149.63c2.66-4.97,2.91-8.55-1.03-12.65-14.25-14.84-30.94-26.59-47.71-38.27-1.11-.77-2.46-1.19-4.31-2.06-1.67,1.56-3.51,2.99-4.99,4.72-5.55,6.5-10.96,13.13-16.47,19.66-6.99,8.28-6.57,15.06,3.42,20.75,10.73,6.11,21.13,12.79,31.75,19.09,25.46,15.11,25.32,15,39.35-11.25Z"/>
  <path class="st0" d="M309.2,297.48c-5.94-8.71-10.93-18.96-18.72-26.17-3.8-3.52-10.38,4.26-15.82,6.65-6.95,3.06-13.58,6.84-20.34,10.32-35.4,18.25-35.52,19.55-10.32,50.68,5.05,6.23,9.28,7.15,15.32,2.31,15.19-12.21,30.48-24.3,45.6-36.58,2.04-1.66,4.81-3.31,4.27-7.2Z"/>
  <path class="st0" d="M383.4,335.83c-6.12-.41-12.27-1.68-18.19-3.33-6.81-1.9-10.69-.42-12.48,6.89-2.95,11.98-7.07,23.69-9.69,35.74-6.22,28.55-5.98,28.59,22.01,34.03,3.73.72,7.47,1.46,11.1,2.56,6.62,2,9.33-.2,10.18-7.17,2.24-18.4,5.16-36.71,8.28-58.34,1.89-6-2.08-9.76-11.2-10.37Z"/>
  <path class="st0" d="M573.95,164.4c-18.65,5.7-37.57,10.54-56.37,15.77-3.17.88-8.28,1.65-7.93,4.87,1.09,9.86,2.52,19.98,5.96,29.2,2.52,6.74,10.22,1.68,15.02,2.92,9.92-.85,19.41-1.71,28.91-2.48,37.05-3,39.27-6.63,27.53-42.43-2.35-7.16-4.93-10.34-13.12-7.84Z"/>
  <path class="st0" d="M407.55,378.77c6.5,36.1,9.8,37.84,45.17,25.93,5.11-1.72,6.95-3.36,5.48-8.93-5.21-19.79-9.95-39.69-14.92-59.55-.79-3.14-1.08-7.22-5.95-6.12-10.66,2.42-21.3,4.96-31.88,7.75-4.64,1.23-2.55,5.4-3.1,9.46,1.62,9.84,3.25,20.67,5.2,31.45Z"/>
  <path class="st0" d="M360.45,107.57c6.7,7.15,16.33-2.73,25.08-1.68,9.85,1.18,12.7-4.04,11.28-10.66-2.33-20.18-4.19-38.14-6.59-56.02-.71-5.28-1.11-13.18-9.61-10.55-12.94,4-28.76-.4-38.53,12.36-1.35,1.76.72,6.37,1.57,9.56,2.96,11,6.07,21.96,9.16,32.92,2.32,8.21,2.44,18.53,7.63,24.07Z"/>
  <path class="st0" d="M282.68,234.5c-1.47-7.8-4.76-9.52-10.88-8.1-16.74,1.74-32.85,3.47-48.97,5.08q-19.13,1.91-15.74,20.17c1.13,6.09,2.73,12.15,3.19,18.29.76,10.11,6.33,11.69,14.68,9.4,12.4-3.41,24.83-6.68,37.17-10.29,26.03-7.63,25.62-7.63,20.56-34.54Z"/>
  <path class="st0" d="M247.83,169.07c-39.21-10.55-31.31-16.06-41.02,25.24-2.29,9.74,1.33,13.06,9.85,14.43,18.27,2.94,36.52,6.06,54.77,9.1,7.04.96,9.92-1.3,11.33-8.87,5.07-27.12,5.44-27.05-21.39-35.55-4.52-1.43-8.97-3.13-13.55-4.36Z"/>
  <path class="st0" d="M582.68,234.16c-19.24-2.92-38.49-5.82-60-9.07-4.32-1.57-7.48.67-8.31,7.69-.77,6.57-2.12,13.18-4.21,19.45-2.12,6.36-.73,9.36,5.8,11.47,19.47,6.27,39.31,10.9,59.26,15.22,9.55,2.07,10.64-5.12,11.05-10.87.78-10.94,11.9-21.43,1.88-32.78-.99-1.12-3.61-.82-5.49-1.11Z"/>
</svg>